User Type,Username,Date,Text
[T],thetorrentlord,2011-05-13T08:46Z,"INFO:                   *******************************************The.Tourist.2010.BluRay.720p.x264.DTS-MySiLU.mkv
Format                           : Matroska
File size                        : 4.37 GiB
Duration                         : 1h 43mn
Overall bit rate                 : 6 052 Kbps
Encoded date                     : UTC 2011-02-18 14:40:03
Writing application              : mkvmerge v3.4.0 ('Rapunzel') ??? May 15 2010 09:38:20
Writing library                  : libebml v0.8.0 + libmatroska v0.9.0

Video
ID                               : 1
Format                           : AVC
Format/Info                      : Advanced Video Codec
Format profile                   : High@L4.1
Format settings, CABAC           : Yes
Format settings, ReFrames        : 8 frames
Muxing mode                      : Container profile=Unknown@4.1
Codec ID                         : V_MPEG4/ISO/AVC
Duration                         : 1h 43mn
Bit rate                         : 4 541 Kbps
Width                            : 1 280 pixels
Height                           : 534 pixels
Display aspect ratio             : 2.35:1
Frame rate                       : 23.976 fps
Color space                      : YUV
Chroma subsampling               : 4:2:0
Bit depth                        : 8 bits
Scan type                        : Progressive
Bits/(Pixel*Frame)               : 0.277
Stream size                      : 3.20 GiB (73%)
Title                            : The.Tourist.2010.BluRay.720p.x264.DTS-MySiLU
Writing library                  : x264 core 114 r1900 60ef1f8
Encoding settings                : cabac=1 / ref=8 / deblock=1:-2:-2 / analyse=0x3:0x133 / me=umh / subme=9 / psy=1 / psy_rd=1.20:0.20 / mixed_ref=1 / me_range=16 / chroma_me=1 / trellis=2 / 8x8dct=1 / cqm=0 / deadzone=21,11 / fast_pskip=1 / chroma_qp_offset=-3 / threads=12 / sliced_threads=0 / nr=0 / decimate=0 / interlaced=0 / constrained_intra=0 / bframes=3 / b_pyramid=2 / b_adapt=2 / b_bias=0 / direct=3 / weightb=1 / open_gop=0 / weightp=2 / keyint=250 / keyint_min=2 / scenecut=40 / intra_refresh=0 / rc_lookahead=60 / rc=2pass / mbtree=1 / bitrate=4541 / ratetol=1.0 / qcomp=0.60 / qpmin=10 / qpmax=51 / qpstep=4 / cplxblur=20.0 / qblur=0.5 / vbv_maxrate=38000 / vbv_bufsize=38000 / nal_hrd=none / ip_ratio=1.40 / aq=1:1.00
Language                         : English

Audio
ID                               : 2
Format                           : DTS
Format/Info                      : Digital Theater Systems
Codec ID                         : A_DTS
Duration                         : 1h 43mn
Bit rate mode                    : Constant
Bit rate                         : 1 510 Kbps
Channel(s)                       : 6 channels
Channel positions                : Front: L C R, Side: L R, LFE
Sampling rate                    : 48.0 KHz
Bit depth                        : 24 bits
Stream size                      : 1.09 GiB (25%)
Language                         : English"
[T],thetorrentlord,2011-05-13T19:07Z,"Sorry, but I just  found a forced subtitle for non English speaking parts and will redo this. If it works I will repost as a new upload."
[T],thetorrentlord,2011-05-13T23:45Z,Found a set of English subtitles and will redo this torrent asap. Sorry for any inconvenience.
